<svg xmlns="http://www.w3.org/2000/svg" width="880pt" height="200" viewBox="0 0 880 150"><g fill="#152849"><path d="M61.58 0h1.92c2.03.75 4.72 1.78 4.92 4.3.57 4.9.28 9.85.32 14.77-.01 2.78-.23 6.17-2.9 7.78-4.26 2.63-9.32 3.65-13.51 6.45-12.88 8.14-20.39 22.9-22.47 37.69-2.81 18.37 7.04 38.27 24.06 46.17 4.16 2.35 9.47 2.59 12.96 6.02 2.74 4.39 1.61 9.92 1.89 14.84-.3 3 .57 6.69-1.69 9.1-1.63 1.48-3.68 3.02-6.03 2.61-17.31-2.5-32.99-12.47-44.13-25.75C6.54 111.59 1.16 95.63 0 79.63v-7.58C.88 53.1 8.08 34.14 21.64 20.64 32.21 9.61 46.26 1.67 61.58 0zM210.55 39.81c9.92-1.81 20.41-1.53 29.98 1.84 9.36 3.29 17.2 10.53 21.28 19.56 4.22 9.33 4.92 19.9 3.76 29.96-1.15 9.91-5.51 19.68-13.2 26.22-7.74 6.83-18.24 9.66-28.4 9.85-10.69.31-21.95-1.92-30.5-8.69-8.55-6.54-13.45-16.94-14.62-27.49-1.33-11.77-.14-24.46 6.4-34.63 5.58-8.83 15.13-14.69 25.3-16.62m6.67 15.37c-4.62.95-8.68 3.89-11.22 7.82-4.08 6.15-4.98 13.78-4.91 20.99.12 7.03 1.38 14.46 5.76 20.18 7.18 9.73 23.96 9.59 30.98-.26 4.81-6.52 5.73-14.97 5.54-22.84-.24-7.49-1.9-15.55-7.33-21.09-4.78-4.96-12.3-6.18-18.82-4.8zM315.18 61.26c8.3-2.58 18.12-1.15 24.57 4.95 7.97 7.17 11.04 18.31 10.65 28.74-.1 9.97-3.62 20.44-11.5 26.93-6.51 5.54-15.93 6.62-23.93 4.14-5.27-1.56-9.38-5.43-12.78-9.59.04 11.19.01 22.38.02 33.57h-20.45c.01-29.46-.02-58.93.01-88.39 6.81-.02 13.62-.02 20.43 0 .01 3.1.02 6.2-.01 9.3 3.38-4.27 7.68-8.05 12.99-9.65m-3.8 14.3c-3.5 1.1-6.17 4.06-7.42 7.45-1.85 4.86-1.98 10.19-1.46 15.31.59 4.78 2.33 10.05 6.79 12.52 5.26 2.83 12.84 1.99 16.43-3.11 3-4.26 3.56-9.7 3.54-14.77-.13-4.88-.86-10.16-4.08-14.05-3.25-3.99-9.09-4.8-13.8-3.35zM372.36 67.24c8.52-6.67 20.04-8.06 30.49-6.72 9.82 1.26 18.89 7.51 23.18 16.48 3.48 6.86 3.65 14.73 3.48 22.26-15.95.02-31.89-.01-47.84.01.44 6.12 4.35 12.11 10.59 13.47 11.75 2.77 23.88-1.28 34.23-6.76-.01 5.26.01 10.52-.01 15.78-12.26 4.5-25.61 6.83-38.6 4.74-8.22-1.33-16.3-5.37-21.18-12.28-5.43-7.53-6.52-17.31-5.5-26.3.88-7.99 4.72-15.75 11.16-20.68m15.62 8.7c-3.62 2.33-5.42 6.53-6.07 10.65 8.88.01 17.76.04 26.64-.01-.21-3.2-.93-6.53-3.18-8.94-4.2-4.97-12.17-5.05-17.39-1.7zM465.62 70.91c4.24-5.04 9.83-9.3 16.46-10.43 7.04-1.16 15.11-.15 20.42 5.04 5.4 5.29 6.92 13.2 6.99 20.48.04 13.19.01 26.39.02 39.59-6.85.02-13.71.01-20.56 0-.09-12.46.15-24.93-.15-37.39-.25-3.49-.15-7.55-2.84-10.17-4.34-4.09-11.89-3.06-15.71 1.25-3.61 3.95-4.53 9.55-4.6 14.71-.06 10.54 0 21.07-.03 31.6-6.81.01-13.62.01-20.43.01-.02-21.33-.01-42.66-.01-63.99 6.81-.02 13.62 0 20.43-.01.02 3.1.02 6.21.01 9.31z"/></g><g fill="#54b30e"><path d="M85.82 0h2.1c19.12 1.97 35.98 13.76 47.16 28.97 19.23 26.59 19.5 65.57-.05 92.06-10.92 14.52-27.11 25.39-45.13 28.53-3.98 1.11-8.95-2.14-8.85-6.44-.17-5.87-.64-11.88.56-17.67 1.39-4.77 7.1-5.19 10.97-6.93 18.42-6.73 29.83-27.23 27.33-46.44-1.88-15.29-9.52-30.68-22.9-38.98-4.2-2.81-9.36-3.69-13.55-6.5-2.47-1.64-2.49-4.91-2.57-7.56.07-4.99-.28-10.02.37-14.98.28-2.32 2.79-3.14 4.56-4.06zM775.78 36.67c6.85-.01 13.71-.01 20.56 0 .01 29.64 0 59.28.01 88.91-6.86.03-13.72.03-20.57 0-.01-3.06-.01-6.13 0-9.19-3.27 4.22-7.43 8.01-12.62 9.61-7.58 2.35-16.41 1.57-22.87-3.27-7.46-5.53-11.51-14.66-12.34-23.74-1.13-10.94.97-22.98 8.79-31.2 5.27-5.94 13.56-8.62 21.36-7.54 7.17.63 13.45 5.03 17.69 10.68-.02-11.42-.02-22.84-.01-34.26M757.5 75.69c-3.19 1.15-5.62 3.88-6.81 7-2.01 5.23-2.1 11-1.42 16.49.63 4.56 2.49 9.5 6.78 11.78 5.11 2.61 12.32 1.84 15.92-2.93 3.2-4.26 3.79-9.84 3.77-15.01-.12-5.04-.91-10.53-4.37-14.44-3.4-3.82-9.23-4.47-13.87-2.89zM547.68 58.345v67.235c7.33.03 14.66.01 21.99.02.01-22.91-.01-45.82.01-68.73 9.43-.01 18.85 0 28.28 0 0-5.54.01-11.07-.01-16.6h-50.27V58.345zM537.887 40.27c-6.178 0-12.357-.002-18.536 0-.011 5.53-.01 11.06-.01 16.59 6.184.01 12.365.008 18.546.006V40.27z"/><path d="M628.35 61.48c4.7-1.69 9.79-1.62 14.68-1 .05 6.17.04 12.33.07 18.5-6.03-2.58-13.43-3.7-19.36-.29-5.3 3.07-7.47 9.46-7.61 15.29-.26 10.53-.02 21.08-.12 31.61-6.82 0-13.64.02-20.45-.01.01-21.32-.01-42.65.01-63.97 6.81-.02 13.63-.02 20.44 0 .01 3.48.02 6.97-.01 10.46 3-4.59 7.02-8.82 12.35-10.59zM654.2 63.29c10.76-2.49 21.87-3.81 32.91-2.97 7.08.64 14.69 2.43 19.74 7.82 4.94 5.3 6.3 12.86 6.45 19.86.07 12.53.01 25.06.03 37.58-6.88.02-13.76.03-20.63 0-.01-3.14-.01-6.28 0-9.42-3.34 4.6-7.83 8.69-13.48 10.08-8.31 2.11-18.18 1.32-24.61-4.89-9.22-8.71-8.06-27.07 3.96-32.78 10.64-5.07 22.77-3.72 34.21-3.99.45-4.39-2.09-8.82-6.56-9.78-10.67-2.51-22.3-.92-32.04 4.07.02-5.19-.01-10.39.02-15.58m19.2 35.15c-5.35 2.33-5.6 10.93-.6 13.75 5.49 2.97 13.03 1.39 16.78-3.64 2.72-3.26 3.24-7.65 3.15-11.74-6.42.33-13.26-1.03-19.33 1.63zM821.99 67.93c7.95-6.79 18.99-8.53 29.13-7.67 8.03.64 15.93 4.19 21.18 10.4 5.1 5.72 7.35 13.41 7.7 20.94v7.67c-15.97.01-31.93-.03-47.9.02.63 3.19 1.34 6.57 3.56 9.09 2.99 3.62 7.85 4.97 12.37 5.21 10.17.55 20.08-2.87 28.94-7.61-.01 5.26.01 10.52-.01 15.78-12.06 4.43-25.17 6.75-37.98 4.84-8.3-1.23-16.51-5.14-21.54-12.03-5.59-7.48-6.77-17.33-5.79-26.38.82-7.71 4.3-15.27 10.34-20.26m13.63 10.63c-1.88 2.28-2.66 5.19-3.26 8.02 8.88.04 17.76.01 26.64.02.01-4.8-2.38-9.78-6.9-11.83-5.51-2.32-12.7-1.04-16.48 3.79z"/></g></svg>